<?xml version="1.0" standalone="no"?>
<!DOCTYPE svg PUBLIC "-//W3C//DTD SVG 20010904//EN"
 "http://www.w3.org/TR/2001/REC-SVG-20010904/DTD/svg10.dtd">
<svg version="1.0" xmlns="http://www.w3.org/2000/svg"
 width="752.000000pt" height="752.000000pt" viewBox="0 0 752.000000 752.000000"
 preserveAspectRatio="xMidYMid meet">
<metadata>
Created by potrace 1.11, written by Peter Selinger 2001-2013
</metadata>
<g transform="translate(0.000000,752.000000) scale(0.100000,-0.100000)"
fill="#000000" stroke="none">
<path d="M3848 7214 c-2 -1 -50 -5 -108 -8 -118 -6 -180 -12 -236 -21 -22 -3
-55 -8 -74 -11 -19 -3 -89 -19 -155 -35 -66 -17 -127 -32 -135 -33 -8 -2 -22
-6 -30 -9 -8 -3 -62 -20 -120 -38 -58 -18 -112 -36 -120 -40 -8 -4 -53 -22
-100 -40 -47 -18 -125 -52 -173 -76 -48 -24 -92 -43 -97 -43 -4 0 -10 -3 -12
-7 -2 -5 -28 -21 -58 -37 -74 -38 -310 -196 -310 -207 0 -5 -5 -9 -11 -9 -6 0
-16 -6 -24 -12 -7 -7 -39 -35 -71 -63 -59 -51 -234 -223 -234 -230 0 -2 -12
-17 -26 -32 -15 -15 -52 -59 -83 -98 -31 -38 -59 -72 -62 -75 -4 -3 -55 -77
-113 -165 -59 -88 -114 -169 -122 -180 -7 -10 -14 -25 -14 -32 0 -7 -3 -13 -8
-13 -4 0 -18 -21 -32 -47 -13 -27 -27 -50 -30 -53 -3 -3 -14 -23 -25 -45 -11
-22 -27 -51 -36 -65 -61 -96 -167 -391 -184 -510 -2 -14 -4 -25 -5 -25 -3 0
-10 -43 -13 -88 -4 -52 -12 -65 -42 -70 -31 -5 -175 -80 -243 -126 -65 -44
-152 -125 -152 -141 0 -5 -4 -10 -8 -10 -5 0 -14 -10 -20 -22 -6 -13 -24 -46
-40 -73 -26 -46 -60 -130 -52 -130 2 0 -1 -9 -7 -20 -42 -78 -35 -321 13 -430
10 -22 17 -42 17 -45 -3 -12 105 -162 150 -209 47 -50 48 -51 32 -80 -8 -17
-17 -40 -19 -53 -3 -13 -5 -23 -6 -23 -10 0 -14 -138 -14 -500 0 -378 3 -462
19 -575 7 -47 15 -125 20 -180 4 -52 12 -125 20 -180 2 -14 7 -45 11 -70 3
-25 10 -53 15 -62 6 -10 8 -18 5 -18 -3 0 1 -21 9 -48 8 -26 16 -58 19 -72 3
-14 12 -50 21 -80 9 -30 18 -62 20 -70 59 -215 218 -562 312 -681 46 -58 187
-190 254 -236 98 -67 248 -146 324 -169 68 -21 175 -43 235 -49 83 -8 159 -28
255 -65 28 -11 173 -48 215 -54 19 -3 44 -7 55 -10 21 -4 115 -15 195 -22 50
-4 343 -4 405 0 22 2 81 7 130 11 50 5 105 9 122 9 18 1 33 3 33 6 0 3 10 5
23 6 33 0 169 14 192 19 11 3 45 7 75 10 30 3 64 7 75 9 11 2 47 7 80 10 33 4
78 9 100 12 22 3 58 7 80 9 22 2 58 9 80 14 22 5 54 13 70 17 17 4 32 8 35 9
3 1 25 7 50 14 25 6 50 13 55 15 6 2 12 3 15 3 3 0 15 5 28 12 13 7 31 14 40
16 25 4 288 113 345 142 50 25 130 78 183 123 17 14 53 43 80 65 97 79 236
245 261 312 3 10 9 20 12 23 35 30 150 364 167 485 1 11 3 20 4 20 2 0 6 21
14 70 4 22 8 47 11 55 2 8 6 38 10 65 3 28 8 59 11 70 3 12 7 43 9 70 2 28 4
50 5 50 2 0 3 12 14 95 3 30 8 66 11 80 2 14 6 41 9 60 3 19 8 46 11 60 8 37
15 105 20 200 3 47 7 103 10 125 4 36 7 78 20 265 6 91 15 172 20 180 17 27
12 156 -10 290 -2 14 -6 45 -10 70 -7 53 -30 113 -61 155 l-22 30 28 60 c52
109 82 230 83 330 0 50 -3 103 -7 118 -20 81 -94 242 -118 258 -6 4 1 28 16
55 54 106 57 212 11 364 -9 30 -21 73 -27 95 -6 22 -17 60 -25 83 -16 51 -90
199 -104 208 -22 13 -8 43 24 50 17 4 39 9 47 11 26 7 123 3 180 -7 70 -12
124 -18 256 -25 58 -4 116 -9 128 -11 11 -2 37 -7 56 -10 19 -3 37 -8 40 -11
3 -2 6 -36 7 -75 5 -160 78 -322 193 -426 37 -34 120 -87 160 -102 19 -7 40
-17 45 -21 37 -28 325 -33 341 -7 3 4 16 8 30 8 13 0 24 5 24 10 0 6 7 10 16
10 24 0 143 82 197 136 92 91 210 297 237 414 14 59 17 241 6 303 -25 134 -99
242 -215 316 -41 26 -165 70 -246 86 -44 9 -145 7 -183 -4 -28 -8 -33 -7 -44
12 -6 12 -14 24 -17 27 -4 3 -24 30 -46 60 -22 30 -42 57 -46 60 -3 3 -35 48
-69 100 -35 52 -68 97 -72 98 -4 2 -8 10 -8 18 0 8 -4 14 -9 14 -5 0 -12 8
-15 18 -3 9 -16 29 -28 44 -13 15 -39 49 -58 75 -19 27 -39 53 -45 59 -5 6
-28 33 -50 60 -86 105 -223 231 -352 322 -40 28 -223 122 -283 146 -25 10 -58
24 -75 31 -34 15 -175 64 -220 76 -85 23 -116 30 -185 45 -41 9 -82 18 -90 19
-8 1 -28 4 -45 8 -16 4 -50 9 -75 12 -25 3 -56 8 -70 10 -14 3 -56 7 -95 11
-38 3 -90 7 -115 10 -49 4 -688 13 -692 8z m662 -648 c30 -3 82 -9 115 -12 33
-3 67 -7 75 -9 8 -1 40 -6 70 -11 30 -4 57 -8 60 -9 3 -1 23 -5 45 -9 145 -29
359 -103 472 -163 111 -58 145 -84 233 -172 92 -93 104 -107 165 -191 22 -30
46 -61 53 -69 7 -7 11 -15 9 -17 -9 -10 -139 0 -157 11 -7 4 -108 14 -195 19
-21 1 -66 -2 -100 -6 -33 -5 -80 -10 -104 -13 -24 -3 -49 -9 -55 -12 -6 -4
-18 -8 -26 -8 -54 -4 -216 -84 -307 -152 l-33 -24 -72 44 c-173 103 -323 149
-488 150 -70 0 -94 -5 -140 -26 -124 -58 -191 -168 -186 -305 3 -77 27 -140
77 -196 61 -71 131 -102 248 -113 31 -2 60 -9 65 -14 6 -5 16 -9 23 -9 15 0
117 -63 140 -86 8 -8 18 -14 23 -14 16 0 198 -185 224 -228 77 -124 80 -138
34 -127 -18 4 -42 9 -53 10 -11 2 -22 4 -25 5 -3 1 -9 3 -15 4 -5 1 -30 5 -55
10 -43 8 -56 11 -99 20 -10 2 -35 7 -56 10 -20 4 -41 9 -45 11 -5 3 -11 2 -14
-3 -5 -9 -40 -8 -136 4 -30 3 -75 8 -100 9 -125 9 -220 19 -282 30 -20 3 -81
8 -135 10 -107 5 -179 13 -203 24 -8 4 -55 6 -105 4 -49 -1 -142 -4 -205 -5
-63 -2 -120 -6 -126 -10 -16 -11 -66 -18 -77 -11 -5 3 -28 7 -51 9 -22 2 -52
6 -66 10 -14 4 -63 8 -110 10 -47 2 -112 6 -145 10 -78 8 -254 9 -330 1 -95
-11 -250 -25 -335 -31 -25 -2 -85 1 -135 8 -49 6 -109 11 -132 11 -28 0 -43 4
-43 12 0 17 25 81 66 171 19 41 34 78 34 83 0 5 3 9 8 9 4 0 18 23 31 50 14
28 29 50 33 50 4 0 8 9 8 20 0 11 7 23 15 26 8 4 15 11 15 17 0 13 204 320
229 345 9 10 33 37 52 62 94 118 327 340 357 340 6 0 12 4 14 9 9 25 333 210
382 218 11 2 28 11 38 20 10 9 18 13 18 10 0 -4 24 4 54 17 30 13 57 22 60 18
3 -3 6 -1 6 5 0 5 6 10 13 10 6 0 59 15 117 32 132 40 262 71 320 76 24 3 51
7 59 10 8 3 64 8 125 12 61 3 112 6 113 7 6 5 592 -2 643 -8z m-1865 -2252
c33 -3 78 -6 100 -6 36 0 87 -6 195 -23 19 -3 51 -8 70 -11 19 -3 47 -9 62
-14 41 -13 136 -5 198 18 30 11 77 20 104 21 26 1 51 3 55 5 3 2 31 0 61 -5
107 -16 146 -20 235 -24 50 -2 119 -9 155 -15 36 -6 94 -12 130 -15 110 -7
215 -17 221 -21 4 -2 42 -4 85 -5 44 0 97 -5 119 -9 22 -5 54 -11 70 -14 17
-3 41 -8 55 -11 38 -8 83 -16 105 -20 11 -2 58 -17 105 -35 154 -57 165 -72
119 -165 -17 -36 -35 -65 -38 -65 -3 0 -19 -13 -36 -28 -50 -45 -223 -128
-307 -146 -13 -3 -41 -10 -63 -15 -38 -9 -72 -15 -160 -27 -22 -3 -51 -8 -65
-10 -32 -5 -167 -13 -335 -19 -71 -3 -157 -8 -190 -12 -65 -7 -182 -6 -460 3
-99 3 -306 8 -460 9 -154 2 -309 6 -345 10 -85 8 -238 19 -391 29 -88 6 -158
18 -304 53 -16 4 -32 7 -35 8 -3 1 -23 5 -45 10 -105 21 -118 24 -150 37 -16
6 -48 23 -70 38 -22 14 -58 35 -80 45 -22 10 -51 26 -65 35 -14 10 -56 34 -95
55 -159 85 -161 147 -6 214 95 40 245 77 393 96 26 3 68 9 94 14 26 5 56 8 65
6 98 -19 289 -24 419 -11 41 4 95 9 120 11 70 6 143 15 146 18 5 5 158 -1 219
-9z m-1260 -1146 c51 -12 70 -17 126 -28 25 -5 84 -18 130 -28 159 -38 230
-48 369 -57 41 -3 107 -7 145 -10 64 -5 96 -8 235 -21 25 -3 182 -7 350 -9
168 -2 377 -7 465 -9 304 -10 467 -11 471 -4 3 5 13 4 23 -2 10 -5 21 -6 25
-3 10 10 28 12 186 18 170 6 346 15 369 20 19 3 80 12 136 20 45 6 100 16 130
22 11 3 29 6 40 8 44 8 223 63 269 83 45 20 73 21 61 3 -4 -7 -13 -102 -21
-226 -3 -45 -8 -108 -19 -220 -2 -22 -7 -85 -9 -140 -5 -82 -13 -154 -21 -185
-1 -3 -5 -32 -9 -65 -5 -33 -10 -69 -12 -80 -5 -22 -14 -90 -19 -145 -12 -108
-50 -325 -71 -400 -8 -30 -17 -65 -20 -77 -2 -12 -9 -35 -16 -50 -6 -16 -13
-37 -15 -47 -2 -11 -9 -27 -16 -35 -7 -9 -21 -33 -32 -55 -39 -77 -188 -210
-284 -253 -85 -38 -305 -122 -335 -127 -14 -2 -29 -7 -34 -10 -5 -3 -19 -7
-33 -10 -13 -3 -33 -7 -44 -9 -11 -3 -45 -8 -75 -12 -30 -3 -66 -8 -80 -10
-14 -2 -50 -6 -80 -9 -30 -3 -64 -8 -75 -10 -11 -2 -51 -7 -90 -10 -38 -4 -87
-9 -108 -12 -21 -3 -53 -7 -70 -8 -18 -2 -50 -6 -72 -9 -158 -22 -456 -34
-580 -23 -99 9 -171 20 -206 31 -10 4 -29 8 -42 9 -12 2 -29 6 -37 9 -84 31
-233 77 -265 82 -23 3 -50 7 -60 9 -11 2 -51 7 -89 11 -38 3 -76 10 -85 15 -9
4 -42 20 -73 35 -32 15 -66 34 -77 44 -11 9 -40 32 -65 51 -40 31 -104 114
-99 129 1 3 -4 13 -12 21 -18 21 -114 242 -130 300 -3 8 -16 53 -30 100 -15
47 -28 93 -31 103 -11 46 -14 59 -19 80 -6 22 -20 96 -30 152 -2 17 -7 64 -11
105 -3 41 -7 89 -9 105 -2 17 -7 53 -10 80 -3 28 -8 61 -11 75 -7 31 -13 660
-7 693 5 23 7 24 36 15 18 -5 50 -14 72 -20z"/>
<path d="M2199 2931 c-31 -9 -62 -21 -70 -26 -8 -6 -27 -17 -42 -25 -24 -12
-68 -56 -106 -106 -7 -9 -20 -40 -26 -64 -1 -3 -5 -12 -8 -20 -30 -71 -29
-209 2 -288 110 -279 428 -375 636 -194 57 49 135 180 150 252 13 57 13 140 2
179 -6 20 -11 38 -12 41 -3 13 -41 79 -62 107 -32 42 -111 94 -195 127 -84 33
-188 40 -269 17z"/>
<path d="M3718 2934 c-2 -1 -21 -4 -43 -7 -88 -12 -194 -47 -219 -73 -8 -8
-18 -14 -21 -14 -13 0 -82 -74 -109 -118 -46 -74 -63 -188 -41 -287 26 -120
174 -249 310 -269 17 -2 62 -10 102 -16 40 -6 82 -8 95 -4 13 4 28 9 35 10 23
4 98 46 126 70 58 50 128 171 141 244 3 14 5 27 6 30 4 13 1 108 -5 135 -7 34
-50 123 -70 145 -36 39 -55 57 -85 80 -36 28 -100 61 -100 53 0 -3 -7 0 -15 7
-8 7 -15 10 -15 8 0 -3 -20 -2 -45 2 -25 4 -46 6 -47 4z"/>
<path d="M1854 2056 c-125 -41 -216 -159 -223 -289 -3 -55 16 -147 31 -147 5
0 7 -4 3 -9 -3 -5 2 -16 10 -25 9 -8 15 -18 15 -21 -3 -15 80 -100 130 -134
84 -57 355 -201 377 -201 7 0 46 -15 85 -33 64 -30 144 -53 243 -72 61 -11 71
-13 125 -20 147 -21 263 -28 455 -28 187 0 316 9 420 29 10 2 35 6 55 9 165
25 291 70 399 143 31 21 90 58 131 82 72 41 180 123 233 176 58 58 90 174 74
268 -12 70 -41 121 -98 176 -88 84 -234 110 -341 61 -26 -11 -49 -21 -52 -21
-6 0 -27 -17 -85 -67 -20 -18 -53 -40 -73 -49 -21 -9 -38 -21 -38 -26 0 -4 -5
-8 -11 -8 -6 0 -33 -16 -60 -36 -46 -34 -84 -50 -139 -59 -14 -2 -37 -7 -52
-10 -135 -27 -434 -38 -593 -21 -253 27 -271 31 -364 73 -31 13 -64 26 -75 28
-10 3 -35 13 -55 25 -20 11 -65 34 -100 52 -35 18 -83 51 -106 73 -59 58 -126
87 -210 91 -41 2 -87 -2 -111 -10z"/>
</g>
</svg>
